<?xml version="1.0" standalone="no"?>
<!DOCTYPE svg PUBLIC "-//W3C//DTD SVG 20010904//EN"
 "http://www.w3.org/TR/2001/REC-SVG-20010904/DTD/svg10.dtd">
<svg version="1.0" xmlns="http://www.w3.org/2000/svg"
 width="1380.000000pt" height="320.000000pt" viewBox="0 0 1380.000000 320.000000"
 preserveAspectRatio="xMidYMid meet">

<g transform="translate(0.000000,320.000000) scale(0.100000,-0.100000)"
fill="#000000" stroke="none">
<path d="M195 2888 c-3 -7 -4 -562 -3 -1233 l3 -1220 327 -3 328 -2 0 284 0
284 86 121 c48 67 92 121 98 120 6 0 159 -182 339 -405 l329 -404 1388 0 c908
0 1391 3 1395 10 6 10 -13 1371 -19 1377 -1 2 -325 2 -719 1 l-717 -3 181
-230 c100 -126 187 -236 193 -243 10 -10 77 -13 307 -13 162 1 300 -3 307 -7
9 -6 16 -62 23 -192 5 -101 7 -190 5 -197 -4 -11 -176 -13 -941 -13 l-936 0
-218 222 c-264 270 -557 598 -549 616 4 10 87 126 367 510 123 169 248 341
277 382 30 41 79 110 109 152 30 42 55 82 55 88 0 7 -112 9 -357 8 l-357 -3
-96 -137 c-52 -76 -124 -179 -159 -230 -377 -543 -373 -538 -383 -538 -4 0 -8
205 -8 455 l0 455 -325 0 c-251 0 -327 -3 -330 -12z m2370 -2060 c22 -10 25
-16 20 -37 -10 -39 -20 -44 -59 -31 -38 12 -79 5 -74 -12 2 -6 26 -19 53 -30
57 -21 105 -68 105 -101 0 -55 -60 -97 -139 -97 -49 0 -121 25 -121 42 0 5 7
23 16 39 15 29 16 30 39 15 13 -9 42 -16 65 -16 57 0 52 24 -11 46 -72 26 -99
54 -99 103 0 32 6 44 31 65 25 22 41 26 89 26 33 0 71 -5 85 -12z m173 -105
l3 -112 57 -3 57 -3 0 -40 0 -40 -107 -3 -108 -3 0 161 0 161 48 -3 47 -3 3
-112z m401 88 c59 -42 79 -135 45 -207 -37 -77 -156 -108 -239 -61 -109 62
-110 210 -1 279 45 28 148 22 195 -11z m326 -16 c0 -38 -1 -40 -35 -43 -19 -2
-38 -9 -43 -15 -4 -7 -7 -52 -6 -102 0 -49 0 -96 0 -103 -1 -9 -14 -12 -43
-10 l-43 3 -3 112 -3 112 -37 3 c-36 3 -37 4 -40 46 l-3 43 128 -3 128 -3 0
-40z m247 27 c9 -9 9 -20 2 -39 -8 -23 -15 -27 -40 -24 -64 7 -79 6 -81 -9 -3
-10 12 -21 45 -32 63 -23 102 -59 102 -95 0 -84 -114 -129 -220 -87 -45 18
-46 22 -24 65 15 29 16 30 39 15 13 -9 42 -16 65 -16 57 0 52 24 -11 46 -71
26 -99 54 -99 99 0 27 8 44 30 67 30 29 33 30 105 26 41 -2 80 -9 87 -16z
m153 -64 c-9 -109 -18 -130 -52 -126 -26 3 -28 7 -41 92 -7 48 -11 94 -8 102
4 9 22 14 57 14 l52 0 -8 -82z m-5 -199 l0 -40 -42 3 c-42 3 -43 4 -46 41 l-3
37 45 0 46 0 0 -41z"/>
<path d="M2986 737 c-67 -67 14 -174 87 -117 21 17 27 30 27 59 0 47 -16 69
-57 77 -26 5 -37 1 -57 -19z"/>
<path d="M2490 2658 c-581 -770 -670 -889 -670 -899 0 -6 91 -107 202 -225
l201 -214 364 0 c203 0 363 4 363 9 0 5 -88 111 -196 237 -145 169 -195 233
-192 249 3 11 60 96 129 189 68 92 158 214 199 270 l75 101 763 3 762 2 -2
258 -3 257 -906 3 -906 2 -183 -242z"/>
<path d="M6989 2225 c-297 -72 -510 -337 -551 -685 -33 -284 79 -491 307 -563
56 -17 94 -22 185 -22 194 1 331 56 461 186 100 98 149 196 179 354 11 61 22
118 24 128 4 16 -14 17 -259 17 l-263 0 -16 -87 c-9 -49 -16 -94 -16 -100 0
-10 34 -13 136 -13 l135 0 -6 -22 c-15 -48 -60 -121 -94 -150 -112 -99 -302
-116 -412 -36 -29 21 -50 49 -71 94 -27 59 -31 75 -30 157 2 225 106 423 261
496 48 22 70 26 151 26 74 0 104 -4 134 -19 47 -24 94 -87 102 -138 l7 -38
135 0 135 0 -7 61 c-12 103 -42 167 -110 235 -66 65 -138 105 -224 123 -71 15
-224 13 -293 -4z"/>
<path d="M8401 2220 c-218 -58 -360 -219 -361 -410 0 -167 80 -237 347 -304
153 -39 195 -54 235 -86 50 -39 46 -114 -10 -173 -48 -51 -98 -70 -195 -75
-105 -5 -161 12 -206 63 -28 33 -49 104 -36 125 4 7 -37 10 -124 10 l-131 0 0
-72 c0 -91 12 -133 53 -194 41 -61 94 -98 182 -126 92 -30 304 -32 405 -4 212
58 347 208 358 396 6 102 -12 153 -74 210 -61 56 -124 83 -290 126 -206 53
-264 93 -249 170 16 90 143 163 262 151 102 -11 160 -57 170 -136 l6 -42 121
3 121 3 -1 75 c-2 155 -84 252 -251 295 -81 21 -240 19 -332 -5z"/>
<path d="M10402 2220 c-271 -71 -472 -312 -528 -632 -69 -394 147 -659 517
-634 327 22 577 254 656 611 24 109 21 285 -6 364 -55 159 -157 254 -318 296
-80 21 -231 18 -321 -5z m253 -229 c56 -25 111 -90 129 -152 34 -112 9 -304
-55 -430 -43 -85 -109 -153 -188 -192 -58 -29 -75 -32 -151 -32 -97 0 -145 19
-197 78 -113 129 -75 453 74 627 36 42 100 84 161 106 56 20 179 17 227 -5z"/>
<path d="M12521 2220 c-218 -58 -360 -219 -361 -410 0 -167 80 -237 347 -304
153 -39 195 -54 235 -86 50 -39 46 -114 -10 -173 -48 -51 -98 -70 -195 -75
-105 -5 -161 12 -206 63 -28 33 -49 104 -36 125 4 7 -37 10 -124 10 l-131 0 0
-72 c0 -91 12 -133 53 -194 41 -61 94 -98 182 -126 92 -30 304 -32 405 -4 212
58 347 208 358 396 6 102 -12 153 -74 210 -61 56 -124 83 -290 126 -206 53
-264 93 -249 170 16 90 143 163 262 151 102 -11 160 -57 170 -136 l6 -42 121
3 121 3 -1 75 c-2 155 -84 252 -251 295 -81 21 -240 19 -332 -5z"/>
<path d="M5530 2213 c0 -13 -211 -1207 -216 -1225 -5 -17 6 -18 125 -18 127 0
131 1 136 23 2 12 16 90 30 172 l25 150 97 93 c54 50 100 92 103 92 3 0 63
-118 132 -262 l126 -263 151 -3 c83 -1 151 0 151 3 0 3 -79 163 -176 356
l-175 351 163 156 c90 86 215 207 278 269 l115 113 -158 0 -158 0 -294 -291
c-162 -161 -295 -288 -295 -283 0 5 20 122 45 259 24 138 47 265 50 283 l6 32
-131 0 c-71 0 -130 -3 -130 -7z"/>
<path d="M9170 2213 c0 -13 -211 -1207 -216 -1225 -5 -17 19 -18 405 -18 322
0 411 3 411 13 1 6 9 56 19 110 l18 97 -279 0 -280 0 6 28 c7 30 176 993 176
998 0 2 -58 4 -130 4 -71 0 -130 -3 -130 -7z"/>
<path d="M11146 2198 c-3 -13 -10 -50 -16 -83 -6 -33 -13 -70 -16 -82 l-4 -23
190 0 c133 0 190 -3 190 -11 0 -13 -169 -972 -177 -1006 -5 -23 -5 -23 125
-23 l130 0 6 28 c3 15 44 245 91 511 47 266 88 487 91 492 3 5 90 9 193 9
l188 0 12 78 c7 42 15 89 18 105 l5 27 -511 0 -511 0 -4 -22z"/>
</g>
</svg>
