<?xml version="1.0" standalone="no"?>
<!DOCTYPE svg PUBLIC "-//W3C//DTD SVG 20010904//EN"
 "http://www.w3.org/TR/2001/REC-SVG-20010904/DTD/svg10.dtd">
<svg version="1.0" xmlns="http://www.w3.org/2000/svg"
 width="1024.000000pt" height="1024.000000pt" viewBox="0 0 1024.000000 1024.000000"
 preserveAspectRatio="xMidYMid meet">

<g transform="translate(0.000000,1024.000000) scale(0.100000,-0.100000)"
fill="#000000" stroke="none">
<path d="M415 10116 c-149 -36 -262 -153 -294 -306 -9 -42 -11 -1182 -9 -4726
l3 -4670 38 -76 c57 -116 152 -191 275 -217 76 -16 9308 -16 9384 0 149 32
264 142 304 293 12 43 14 794 14 4706 0 3912 -2 4663 -14 4706 -40 152 -154
261 -304 293 -80 17 -9327 14 -9397 -3z m1640 -2358 l-7 -1013 113 151 c63 83
122 162 131 175 25 34 128 175 222 304 44 61 98 135 120 165 23 30 84 116 138
190 53 74 126 176 163 225 107 146 331 456 365 505 14 20 69 98 123 173 l99
137 784 0 c431 0 784 -3 784 -6 0 -3 -37 -55 -82 -115 -46 -61 -106 -140 -133
-177 -28 -37 -93 -125 -145 -197 -52 -71 -98 -134 -103 -140 -4 -5 -41 -55
-81 -110 -133 -182 -366 -495 -605 -815 -130 -173 -244 -326 -253 -340 -9 -14
-89 -121 -177 -239 l-159 -214 51 -62 c29 -34 115 -140 192 -235 77 -95 185
-228 240 -295 55 -67 154 -188 220 -269 66 -81 179 -218 250 -305 72 -86 180
-217 240 -290 140 -168 172 -202 204 -210 14 -3 869 -5 1900 -3 l1874 3 -7
366 c-4 202 -10 371 -13 376 -4 7 -171 8 -479 3 l-473 -7 -63 79 c-35 44 -115
148 -178 231 -63 84 -149 196 -190 250 -41 54 -113 148 -160 210 -47 61 -120
157 -163 212 -80 104 -97 141 -80 168 9 15 142 16 1422 19 l1411 2 -2 -1502
-3 -1503 -2692 -3 c-2919 -2 -2760 -5 -2856 51 -74 44 -91 64 -394 449 -116
146 -240 304 -403 513 -56 72 -144 184 -196 250 -156 199 -437 559 -464 594
l-25 33 -175 -252 c-96 -139 -201 -286 -232 -327 l-58 -75 7 -619 6 -619 -664
2 c-365 2 -663 6 -661 11 1 4 2 1155 2 2557 l0 2550 661 0 662 0 -8 -1012z
m7493 467 c1 -297 0 -555 -3 -572 -3 -19 -15 -38 -27 -44 -32 -17 -438 -37
-858 -42 -206 -2 -741 0 -1189 4 -556 6 -827 6 -853 -1 -52 -15 -97 -56 -182
-170 -40 -52 -150 -198 -246 -325 -96 -126 -228 -302 -294 -390 -65 -88 -134
-180 -153 -204 -18 -24 -33 -55 -33 -68 0 -15 35 -68 92 -141 157 -200 175
-223 285 -364 149 -188 264 -336 297 -380 l28 -38 -473 0 c-261 0 -592 3 -737
7 l-262 6 -113 133 c-61 73 -173 205 -247 295 -74 89 -164 196 -199 238 -77
91 -91 122 -91 199 0 55 3 63 63 148 34 50 90 128 125 175 96 128 212 284 377
508 83 112 215 291 295 400 80 108 278 376 440 596 162 220 318 423 345 451
54 54 89 76 170 105 48 17 133 18 1745 16 l1695 -2 3 -540z m-8046 -5075 c94
-14 206 -52 307 -106 108 -57 138 -81 125 -99 -5 -8 -39 -58 -76 -112 -37 -54
-78 -111 -90 -126 l-23 -28 -83 50 c-46 27 -100 55 -120 61 -20 6 -48 17 -61
23 -14 7 -67 12 -125 12 -92 0 -105 -3 -148 -28 -106 -63 -104 -184 6 -246 48
-27 200 -80 276 -96 19 -4 40 -11 45 -14 6 -4 30 -13 55 -20 104 -30 241 -110
298 -175 127 -145 135 -358 20 -538 -90 -140 -282 -233 -503 -245 -172 -8
-310 18 -465 90 -93 43 -240 143 -240 164 0 4 17 31 38 58 21 28 64 87 96 132
l59 82 46 -39 c60 -50 151 -102 237 -136 60 -24 84 -27 180 -28 97 -1 117 2
162 23 66 31 102 82 102 146 0 40 -5 50 -42 88 -45 44 -126 80 -253 111 -336
82 -499 192 -555 377 -47 153 1 339 116 454 136 137 373 200 616 165z m6668
-1 c123 -20 268 -75 375 -144 30 -19 55 -40 55 -47 0 -7 -21 -42 -46 -78 -25
-36 -66 -95 -91 -132 -24 -38 -48 -68 -53 -68 -4 0 -18 8 -31 18 -98 74 -226
122 -344 129 -84 4 -93 3 -145 -24 -131 -67 -134 -184 -6 -257 39 -23 78 -36
306 -107 156 -48 244 -94 321 -166 80 -76 115 -137 130 -231 24 -145 -25 -296
-130 -401 -66 -66 -138 -109 -247 -147 -73 -25 -91 -28 -239 -28 -147 -1 -168
2 -255 27 -122 36 -261 105 -345 169 -36 28 -65 52 -65 55 0 2 13 21 29 41 15
20 61 81 100 135 l72 98 45 -39 c148 -131 368 -199 522 -163 104 25 166 112
143 199 -19 70 -82 108 -261 157 -289 80 -389 125 -477 213 -128 128 -156 319
-73 495 38 80 120 169 195 211 63 35 174 76 234 86 69 11 208 11 281 -1z
m-3390 -9 c201 -37 346 -114 477 -252 96 -103 167 -235 199 -374 24 -101 24
-308 1 -411 -60 -269 -286 -513 -557 -601 -214 -69 -491 -51 -680 44 -213 107
-354 269 -431 496 -26 78 -32 113 -36 219 -6 141 5 226 43 334 103 288 322
471 654 545 47 10 274 11 330 0z m-2120 -665 l0 -645 390 0 390 0 -2 -172 -3
-173 -570 0 -570 0 -3 805 c-1 443 0 811 3 818 3 9 50 12 185 12 l180 0 0
-645z m4408 473 l2 -168 -265 0 -265 0 0 -647 1 -648 -181 -3 -180 -2 0 650 0
650 -265 0 -265 0 0 170 0 170 708 -2 707 -3 3 -167z m2327 145 c-3 -16 -14
-140 -25 -278 -12 -137 -25 -275 -30 -305 -8 -52 -28 -297 -33 -405 l-2 -50
-110 0 -110 0 -7 55 c-5 30 -17 161 -29 290 -11 129 -29 330 -39 445 -11 116
-20 225 -20 243 l0 32 205 0 205 0 -5 -27z m-146 -1203 c62 -17 100 -52 131
-116 35 -73 36 -87 10 -157 -24 -63 -58 -98 -124 -128 -101 -44 -227 8 -271
113 -68 164 84 337 254 288z"/>
<path d="M4458 2800 c-138 -43 -245 -142 -303 -280 -23 -52 -29 -85 -33 -167
-5 -119 7 -197 44 -274 45 -92 139 -195 214 -234 52 -27 175 -55 241 -55 80 0
196 35 261 79 104 71 171 168 208 305 25 96 25 167 -1 269 -61 242 -234 378
-479 376 -62 -1 -115 -7 -152 -19z"/>
</g>
</svg>
