<?xml version="1.0" standalone="no"?>
<!DOCTYPE svg PUBLIC "-//W3C//DTD SVG 20010904//EN"
 "http://www.w3.org/TR/2001/REC-SVG-20010904/DTD/svg10.dtd">
<svg version="1.0" xmlns="http://www.w3.org/2000/svg"
 width="1024.000000pt" height="1024.000000pt" viewBox="0 0 1024.000000 1024.000000"
 preserveAspectRatio="xMidYMid meet">

<g transform="translate(0.000000,1024.000000) scale(0.100000,-0.100000)"
fill="#000000" stroke="none">
<path d="M740 6220 c0 -1402 -1 -2553 -2 -2557 -2 -5 296 -9 661 -11 l664 -2
-6 619 -7 619 58 75 c31 41 136 188 232 327 l175 252 25 -33 c27 -35 308 -395
464 -594 52 -66 140 -178 196 -250 163 -209 287 -367 403 -513 303 -385 320
-405 394 -449 96 -56 -63 -53 2856 -51 l2692 3 3 1503 2 1502 -1411 -2 c-1280
-3 -1413 -4 -1422 -19 -17 -27 0 -64 80 -168 43 -55 116 -151 163 -212 47 -62
119 -156 160 -210 41 -54 127 -166 190 -250 63 -83 143 -187 178 -231 l63 -79
473 7 c308 5 475 4 479 -3 3 -5 9 -174 13 -376 l7 -366 -1874 -3 c-1031 -2
-1886 0 -1900 3 -32 8 -64 42 -204 210 -60 73 -168 204 -240 290 -71 87 -184
224 -250 305 -66 81 -165 202 -220 269 -55 67 -163 200 -240 295 -77 95 -163
201 -192 235 l-51 62 159 214 c88 118 168 225 177 239 9 14 123 167 253 340
239 320 472 633 605 815 40 55 77 105 81 110 5 6 51 69 103 140 52 72 117 160
145 197 27 37 87 116 133 177 45 60 82 112 82 115 0 3 -353 6 -784 6 l-784 0
-99 -137 c-54 -75 -109 -153 -123 -173 -34 -49 -258 -359 -365 -505 -37 -49
-110 -151 -163 -225 -54 -74 -115 -160 -138 -190 -22 -30 -76 -104 -120 -165
-94 -129 -197 -270 -222 -304 -9 -13 -68 -92 -131 -175 l-113 -151 7 1013 8
1012 -662 0 -661 0 0 -2550z"/>
<path d="M6105 8751 c-81 -29 -116 -51 -170 -105 -27 -28 -183 -231 -345 -451
-162 -220 -360 -488 -440 -596 -80 -109 -212 -288 -295 -400 -165 -224 -281
-380 -377 -508 -35 -47 -91 -125 -125 -175 -60 -85 -63 -93 -63 -148 0 -77 14
-108 91 -199 35 -42 125 -149 199 -238 74 -90 186 -222 247 -295 l113 -133
262 -6 c145 -4 476 -7 737 -7 l473 0 -28 38 c-33 44 -148 192 -297 380 -110
141 -128 164 -285 364 -57 73 -92 126 -92 141 0 13 15 44 33 68 19 24 88 116
153 204 66 88 198 264 294 390 96 127 206 273 246 325 85 114 130 155 182 170
26 7 297 7 853 1 448 -4 983 -6 1189 -4 420 5 826 25 858 42 12 6 24 25 27 44
3 17 4 275 3 572 l-3 540 -1695 2 c-1612 2 -1697 1 -1745 -16z"/>
<path d="M1221 3149 c-77 -13 -183 -53 -245 -93 -107 -68 -165 -145 -203 -266
-28 -92 -29 -174 -3 -259 56 -185 219 -295 555 -377 127 -31 208 -67 253 -111
37 -38 42 -48 42 -88 0 -64 -36 -115 -102 -146 -45 -21 -65 -24 -162 -23 -96
1 -120 4 -180 28 -86 34 -177 86 -237 136 l-46 39 -59 -82 c-32 -45 -75 -104
-96 -132 -21 -27 -38 -54 -38 -58 0 -21 147 -121 240 -164 155 -72 293 -98
465 -90 221 12 413 105 503 245 115 180 107 393 -20 538 -57 65 -194 145 -298
175 -25 7 -49 16 -55 20 -5 3 -26 10 -45 14 -76 16 -228 69 -276 96 -110 62
-112 183 -6 246 43 25 56 28 148 28 58 0 111 -5 125 -12 13 -6 41 -17 61 -23
20 -6 74 -34 120 -61 l83 -50 23 28 c12 15 53 72 90 126 37 54 71 104 76 112
13 18 -17 42 -125 99 -189 101 -394 137 -588 105z"/>
<path d="M7889 3150 c-60 -10 -171 -51 -234 -86 -75 -42 -157 -131 -195 -211
-83 -176 -55 -367 73 -495 88 -88 188 -133 477 -213 179 -49 242 -87 261 -157
16 -59 -1 -108 -52 -152 -128 -109 -421 -54 -613 116 l-45 39 -72 -98 c-39
-54 -85 -115 -100 -135 -16 -20 -29 -39 -29 -41 0 -3 29 -27 65 -55 84 -64
223 -133 345 -169 87 -25 108 -28 255 -27 148 0 166 3 239 28 109 38 181 81
247 147 105 105 154 256 130 401 -15 94 -50 155 -130 231 -77 72 -165 118
-321 166 -228 71 -267 84 -306 107 -128 73 -125 190 6 257 52 27 61 28 145 24
118 -7 246 -55 344 -129 13 -10 27 -18 31 -18 5 0 29 30 53 68 25 37 66 96 91
132 25 36 46 71 46 78 0 27 -172 120 -300 160 -125 40 -290 52 -411 32z"/>
<path d="M4450 3140 c-332 -74 -551 -257 -654 -545 -38 -108 -49 -193 -43
-334 4 -106 10 -141 36 -219 77 -227 218 -389 431 -496 189 -95 466 -113 680
-44 271 88 497 332 557 601 23 103 23 310 -1 411 -32 139 -103 271 -199 374
-131 138 -276 215 -477 252 -56 11 -283 10 -330 0z m327 -345 c162 -53 266
-171 312 -352 26 -102 26 -173 1 -269 -37 -137 -104 -234 -208 -305 -65 -44
-181 -79 -261 -79 -66 0 -189 28 -241 55 -75 39 -169 142 -214 234 -37 77 -49
155 -44 274 4 82 10 115 33 167 58 138 165 237 303 280 88 28 228 26 319 -5z"/>
<path d="M2295 3108 c-3 -7 -4 -375 -3 -818 l3 -805 570 0 570 0 3 173 2 172
-390 0 -390 0 0 645 0 645 -180 0 c-135 0 -182 -3 -185 -12z"/>
<path d="M5650 2950 l0 -170 265 0 265 0 0 -650 0 -650 180 2 181 3 -1 648 0
647 265 0 265 0 -2 168 -3 167 -707 3 -708 2 0 -170z"/>
<path d="M8990 3088 c0 -18 9 -127 20 -243 10 -115 28 -316 39 -445 12 -129
24 -260 29 -290 l7 -55 110 0 110 0 2 50 c5 108 25 353 33 405 5 30 18 168 30
305 11 138 22 262 25 278 l5 27 -205 0 -205 0 0 -32z"/>
<path d="M9116 1885 c-79 -28 -135 -110 -136 -198 0 -113 76 -197 193 -213 51
-7 125 20 169 63 29 27 68 117 68 154 0 40 -58 143 -93 167 -64 43 -132 52
-201 27z"/>
</g>
</svg>
