<?xml version="1.0" standalone="no"?>
<!DOCTYPE svg PUBLIC "-//W3C//DTD SVG 20010904//EN"
 "http://www.w3.org/TR/2001/REC-SVG-20010904/DTD/svg10.dtd">
<svg version="1.0" xmlns="http://www.w3.org/2000/svg"
 width="1380.000000pt" height="320.000000pt" viewBox="0 0 1380.000000 320.000000"
 preserveAspectRatio="xMidYMid meet">

<g transform="translate(0.000000,320.000000) scale(0.100000,-0.100000)"
fill="#000000" stroke="none">
<path d="M2391 814 c-25 -21 -31 -33 -31 -65 0 -49 27 -77 99 -103 63 -22 68
-46 11 -46 -23 0 -52 7 -65 16 -23 15 -24 14 -39 -15 -9 -16 -16 -34 -16 -39
0 -17 72 -42 121 -42 79 0 139 42 139 97 0 33 -48 80 -105 101 -27 11 -51 24
-53 30 -5 17 36 24 74 12 39 -13 49 -8 59 31 8 33 -25 49 -105 49 -48 0 -64
-4 -89 -26z"/>
<path d="M2640 680 l0 -161 108 3 107 3 0 40 0 40 -57 3 -57 3 -3 112 -3 112
-47 3 -48 3 0 -161z"/>
<path d="M2944 822 c-109 -69 -108 -217 1 -279 83 -47 202 -16 239 61 34 72
14 165 -45 207 -47 33 -150 39 -195 11z m144 -89 c6 -9 12 -34 12 -54 0 -71
-77 -101 -122 -47 -44 51 2 136 65 124 18 -3 38 -14 45 -23z"/>
<path d="M3212 798 c3 -42 4 -43 40 -46 l37 -3 3 -112 3 -112 43 -3 c29 -2 42
1 43 10 0 7 0 54 0 103 -1 50 2 95 6 102 5 6 24 13 43 15 34 3 35 5 35 43 l0
40 -128 3 -128 3 3 -43z"/>
<path d="M3520 812 c-22 -23 -30 -40 -30 -67 0 -45 28 -73 99 -99 63 -22 68
-46 11 -46 -23 0 -52 7 -65 16 -23 15 -24 14 -39 -15 -22 -43 -21 -47 24 -65
106 -42 220 3 220 87 0 36 -39 72 -102 95 -33 11 -48 22 -45 32 2 15 17 16 81
9 25 -3 32 1 40 24 15 40 -3 51 -89 55 -72 4 -75 3 -105 -26z"/>
<path d="M3764 826 c-3 -8 1 -54 8 -102 13 -85 15 -89 41 -92 34 -4 43 17 52
126 l8 82 -52 0 c-35 0 -53 -5 -57 -14z"/>
<path d="M3772 563 c3 -37 4 -38 46 -41 l42 -3 0 40 0 41 -46 0 -45 0 3 -37z"/>
</g>
</svg>
